<svg width="20" height="20" viewBox="0 0 20 20" fill="none" xmlns="http://www.w3.org/2000/svg">
<path d="M16.6664 13.3333C16.6664 13.5694 16.5866 13.7674 16.4268 13.9271C16.2671 14.0868 16.0692 14.1667 15.8331 14.1667C15.597 14.1667 15.3991 14.0868 15.2393 13.9271C15.0796 13.7674 14.9998 13.5694 14.9998 13.3333L14.9998 6.66666C14.9998 6.43055 15.0796 6.23263 15.2393 6.07291C15.3991 5.91319 15.597 5.83332 15.8331 5.83332C16.0692 5.83332 16.2671 5.91319 16.4268 6.07291C16.5866 6.23263 16.6664 6.43055 16.6664 6.66666L16.6664 13.3333ZM13.3331 9.99999C13.3331 10.2361 13.2532 10.434 13.0935 10.5937C12.9338 10.7535 12.7359 10.8333 12.4998 10.8333L6.52059 10.8333L8.08309 12.4167C8.23587 12.5694 8.31573 12.7604 8.32267 12.9896C8.32962 13.2187 8.24976 13.4167 8.08309 13.5833C7.93031 13.7361 7.73587 13.8125 7.49976 13.8125C7.26364 13.8125 7.0692 13.7361 6.91642 13.5833L3.91642 10.5833C3.83309 10.5 3.77406 10.4097 3.73934 10.3125C3.70462 10.2153 3.68726 10.1111 3.68726 9.99999C3.68726 9.88888 3.70462 9.78471 3.73934 9.68749C3.77406 9.59027 3.83309 9.49999 3.91642 9.41666L6.91642 6.41666C7.0692 6.26388 7.26017 6.18402 7.48934 6.17707C7.71851 6.17013 7.91642 6.24999 8.08309 6.41666C8.23587 6.56943 8.31226 6.76388 8.31226 6.99999C8.31226 7.2361 8.23587 7.43055 8.08309 7.58332L6.52059 9.16666L12.4998 9.16666C12.7359 9.16666 12.9338 9.24652 13.0935 9.40624C13.2532 9.56596 13.3331 9.76388 13.3331 9.99999Z" fill="#0D0D12"/>
</svg>
