<svg width="20" height="20" viewBox="0 0 20 20" fill="none" xmlns="http://www.w3.org/2000/svg">
<path d="M3.33358 13.3333C3.33358 13.5694 3.41344 13.7674 3.57316 13.9271C3.73288 14.0868 3.9308 14.1667 4.16691 14.1667C4.40302 14.1667 4.60094 14.0868 4.76066 13.9271C4.92038 13.7674 5.00025 13.5694 5.00025 13.3333L5.00025 6.66667C5.00025 6.43056 4.92038 6.23264 4.76066 6.07292C4.60094 5.9132 4.40302 5.83334 4.16691 5.83334C3.9308 5.83334 3.73288 5.9132 3.57316 6.07292C3.41344 6.23264 3.33358 6.43056 3.33358 6.66667L3.33358 13.3333ZM6.66691 10C6.66691 10.2361 6.74677 10.434 6.9065 10.5938C7.06622 10.7535 7.26413 10.8333 7.50025 10.8333L13.4794 10.8333L11.9169 12.4167C11.7641 12.5694 11.6843 12.7604 11.6773 12.9896C11.6704 13.2188 11.7502 13.4167 11.9169 13.5833C12.0697 13.7361 12.2641 13.8125 12.5002 13.8125C12.7364 13.8125 12.9308 13.7361 13.0836 13.5833L16.0836 10.5833C16.1669 10.5 16.2259 10.4097 16.2607 10.3125C16.2954 10.2153 16.3127 10.1111 16.3127 10C16.3127 9.88889 16.2954 9.78473 16.2607 9.68751C16.2259 9.59028 16.1669 9.50001 16.0836 9.41667L13.0836 6.41667C12.9308 6.26389 12.7398 6.18403 12.5107 6.17709C12.2815 6.17014 12.0836 6.25001 11.9169 6.41667C11.7641 6.56945 11.6877 6.76389 11.6877 7.00001C11.6877 7.23612 11.7641 7.43056 11.9169 7.58334L13.4794 9.16667L7.50025 9.16667C7.26413 9.16667 7.06622 9.24653 6.9065 9.40626C6.74677 9.56598 6.66691 9.76389 6.66691 10Z" fill="#0D0D12"/>
</svg>
