<svg width="16" height="16" viewBox="0 0 16 16" fill="none" xmlns="http://www.w3.org/2000/svg">
<path d="M5.33333 6C5.14444 6 4.98611 5.93611 4.85833 5.80833C4.73056 5.68055 4.66667 5.52222 4.66667 5.33333C4.66667 5.14444 4.73056 4.98611 4.85833 4.85833C4.98611 4.73055 5.14444 4.66666 5.33333 4.66666H13.3333C13.5222 4.66666 13.6806 4.73055 13.8083 4.85833C13.9361 4.98611 14 5.14444 14 5.33333C14 5.52222 13.9361 5.68055 13.8083 5.80833C13.6806 5.93611 13.5222 6 13.3333 6H5.33333ZM5.33333 8.66666C5.14444 8.66666 4.98611 8.60278 4.85833 8.475C4.73056 8.34722 4.66667 8.18889 4.66667 8C4.66667 7.81111 4.73056 7.65278 4.85833 7.525C4.98611 7.39722 5.14444 7.33333 5.33333 7.33333H13.3333C13.5222 7.33333 13.6806 7.39722 13.8083 7.525C13.9361 7.65278 14 7.81111 14 8C14 8.18889 13.9361 8.34722 13.8083 8.475C13.6806 8.60278 13.5222 8.66666 13.3333 8.66666H5.33333ZM5.33333 11.3333C5.14444 11.3333 4.98611 11.2694 4.85833 11.1417C4.73056 11.0139 4.66667 10.8556 4.66667 10.6667C4.66667 10.4778 4.73056 10.3194 4.85833 10.1917C4.98611 10.0639 5.14444 10 5.33333 10H13.3333C13.5222 10 13.6806 10.0639 13.8083 10.1917C13.9361 10.3194 14 10.4778 14 10.6667C14 10.8556 13.9361 11.0139 13.8083 11.1417C13.6806 11.2694 13.5222 11.3333 13.3333 11.3333H5.33333ZM2.66667 6C2.47778 6 2.31944 5.93611 2.19167 5.80833C2.06389 5.68055 2 5.52222 2 5.33333C2 5.14444 2.06389 4.98611 2.19167 4.85833C2.31944 4.73055 2.47778 4.66666 2.66667 4.66666C2.85556 4.66666 3.01389 4.73055 3.14167 4.85833C3.26944 4.98611 3.33333 5.14444 3.33333 5.33333C3.33333 5.52222 3.26944 5.68055 3.14167 5.80833C3.01389 5.93611 2.85556 6 2.66667 6ZM2.66667 8.66666C2.47778 8.66666 2.31944 8.60278 2.19167 8.475C2.06389 8.34722 2 8.18889 2 8C2 7.81111 2.06389 7.65278 2.19167 7.525C2.31944 7.39722 2.47778 7.33333 2.66667 7.33333C2.85556 7.33333 3.01389 7.39722 3.14167 7.525C3.26944 7.65278 3.33333 7.81111 3.33333 8C3.33333 8.18889 3.26944 8.34722 3.14167 8.475C3.01389 8.60278 2.85556 8.66666 2.66667 8.66666ZM2.66667 11.3333C2.47778 11.3333 2.31944 11.2694 2.19167 11.1417C2.06389 11.0139 2 10.8556 2 10.6667C2 10.4778 2.06389 10.3194 2.19167 10.1917C2.31944 10.0639 2.47778 10 2.66667 10C2.85556 10 3.01389 10.0639 3.14167 10.1917C3.26944 10.3194 3.33333 10.4778 3.33333 10.6667C3.33333 10.8556 3.26944 11.0139 3.14167 11.1417C3.01389 11.2694 2.85556 11.3333 2.66667 11.3333Z" fill="#666D80"/>
</svg>
