<svg width="20" height="20" viewBox="0 0 20 20" fill="none" xmlns="http://www.w3.org/2000/svg">
<path d="M15.8943 15.1712C9.29043 18.3141 5.19199 15.6845 2.56845 14.0874C2.4061 13.9867 2.13017 14.1109 2.36958 14.3859C3.24361 15.4457 6.10801 18.0001 9.84687 18.0001C13.5883 18.0001 15.8141 15.9585 16.0926 15.6024C16.3691 15.2493 16.1738 15.0545 15.8943 15.1712H15.8943ZM17.749 14.1469C17.5717 13.916 16.6706 13.8729 16.1036 13.9426C15.5357 14.0102 14.6832 14.3573 14.7573 14.5657C14.7954 14.6438 14.873 14.6088 15.2631 14.5737C15.6544 14.5347 16.7503 14.3964 16.9786 14.6949C17.2081 14.9955 16.6291 16.4274 16.5234 16.6583C16.4212 16.8892 16.5624 16.9488 16.7543 16.795C16.9436 16.6412 17.2862 16.2431 17.5161 15.6796C17.7445 15.1131 17.8838 14.3227 17.749 14.1469Z" fill="#FF9900"/>
<path fill-rule="evenodd" clip-rule="evenodd" d="M11.4541 8.75807C11.4541 9.58272 11.475 10.2704 11.0582 11.0028C10.7217 11.5982 10.1888 11.9644 9.59342 11.9644C8.78064 11.9644 8.30728 11.3452 8.30728 10.4312C8.30728 8.62704 9.92382 8.29959 11.4541 8.29959V8.75807ZM13.5887 13.9174C13.4488 14.0424 13.2463 14.0514 13.0886 13.968C12.386 13.3845 12.2609 13.1136 11.8739 12.5569C10.7128 13.7418 9.89113 14.096 8.38472 14.096C6.6044 14.096 5.21704 12.9975 5.21704 10.7974C5.21704 9.07962 6.14893 7.90958 7.47366 7.33802C8.62287 6.83185 10.2275 6.74255 11.4541 6.60267V6.32875C11.4541 5.82559 11.4928 5.23018 11.1981 4.79555C10.939 4.40554 10.4449 4.24476 10.0102 4.24476C9.20341 4.24476 8.48293 4.65856 8.30728 5.51596C8.27151 5.70655 8.13164 5.89412 7.94112 5.90303L5.88687 5.68276C5.71424 5.64398 5.52372 5.5041 5.57135 5.2391C6.0447 2.75028 8.29235 2 10.3049 2C11.335 2 12.6806 2.27392 13.4934 3.05395C14.5235 4.01552 14.4252 5.29865 14.4252 6.69492V9.99357C14.4252 10.985 14.8361 11.4196 15.2231 11.9555C15.36 12.146 15.3898 12.3753 15.2171 12.5181C14.7854 12.8784 14.0173 13.5483 13.5946 13.9234L13.5886 13.9174" fill="black"/>
<path d="M15.8943 15.1712C9.29043 18.3141 5.19199 15.6845 2.56845 14.0874C2.4061 13.9867 2.13017 14.1109 2.36958 14.3859C3.24361 15.4457 6.10801 18.0001 9.84687 18.0001C13.5883 18.0001 15.8141 15.9585 16.0926 15.6024C16.3691 15.2493 16.1738 15.0545 15.8943 15.1712H15.8943ZM17.749 14.1469C17.5717 13.916 16.6706 13.8729 16.1036 13.9426C15.5357 14.0102 14.6832 14.3573 14.7573 14.5657C14.7954 14.6438 14.873 14.6088 15.2631 14.5737C15.6544 14.5347 16.7503 14.3964 16.9786 14.6949C17.2081 14.9955 16.6291 16.4274 16.5234 16.6583C16.4212 16.8892 16.5624 16.9488 16.7543 16.795C16.9436 16.6412 17.2862 16.2431 17.5161 15.6796C17.7445 15.1131 17.8838 14.3227 17.749 14.1469Z" fill="#FF9900"/>
<path fill-rule="evenodd" clip-rule="evenodd" d="M11.4541 8.75807C11.4541 9.58272 11.475 10.2704 11.0582 11.0028C10.7217 11.5982 10.1888 11.9644 9.59342 11.9644C8.78064 11.9644 8.30728 11.3452 8.30728 10.4312C8.30728 8.62704 9.92382 8.29959 11.4541 8.29959V8.75807ZM13.5887 13.9174C13.4488 14.0424 13.2463 14.0514 13.0886 13.968C12.386 13.3845 12.2609 13.1136 11.8739 12.5569C10.7128 13.7418 9.89113 14.096 8.38472 14.096C6.6044 14.096 5.21704 12.9975 5.21704 10.7974C5.21704 9.07962 6.14893 7.90958 7.47366 7.33802C8.62287 6.83185 10.2275 6.74255 11.4541 6.60267V6.32875C11.4541 5.82559 11.4928 5.23018 11.1981 4.79555C10.939 4.40554 10.4449 4.24476 10.0102 4.24476C9.20341 4.24476 8.48293 4.65856 8.30728 5.51596C8.27151 5.70655 8.13164 5.89412 7.94112 5.90303L5.88687 5.68276C5.71424 5.64398 5.52372 5.5041 5.57135 5.2391C6.0447 2.75028 8.29235 2 10.3049 2C11.335 2 12.6806 2.27392 13.4934 3.05395C14.5235 4.01552 14.4252 5.29865 14.4252 6.69492V9.99357C14.4252 10.985 14.8361 11.4196 15.2231 11.9555C15.36 12.146 15.3898 12.3753 15.2171 12.5181C14.7854 12.8784 14.0173 13.5483 13.5946 13.9234L13.5886 13.9174" fill="black"/>
</svg>
