<svg width="16" height="17" viewBox="0 0 16 17" fill="none" xmlns="http://www.w3.org/2000/svg">
<path d="M5.99995 9.16641C5.81106 9.16641 5.65273 9.10252 5.52495 8.97474C5.39717 8.84696 5.33328 8.68863 5.33328 8.49974V4.38308L4.08328 5.63308C3.96106 5.7553 3.80828 5.81641 3.62495 5.81641C3.44162 5.81641 3.28328 5.7553 3.14995 5.63308C3.01662 5.49974 2.94995 5.34141 2.94995 5.15808C2.94995 4.97474 3.01662 4.81641 3.14995 4.68308L5.53328 2.29974C5.59995 2.23308 5.67217 2.18585 5.74995 2.15808C5.82773 2.1303 5.91106 2.11641 5.99995 2.11641C6.08884 2.11641 6.17217 2.1303 6.24995 2.15808C6.32773 2.18585 6.39995 2.23308 6.46662 2.29974L8.86662 4.69974C8.99995 4.83308 9.06384 4.98863 9.05828 5.16641C9.05273 5.34419 8.98328 5.49974 8.84995 5.63308C8.71662 5.7553 8.56106 5.81919 8.38328 5.82474C8.20551 5.8303 8.04995 5.76641 7.91662 5.63308L6.66662 4.38308V8.49974C6.66662 8.68863 6.60273 8.84696 6.47495 8.97474C6.34717 9.10252 6.18884 9.16641 5.99995 9.16641ZM9.99995 14.8831C9.91106 14.8831 9.82773 14.8692 9.74995 14.8414C9.67217 14.8136 9.59995 14.7664 9.53328 14.6997L7.13328 12.2997C6.99995 12.1664 6.93606 12.0109 6.94162 11.8331C6.94717 11.6553 7.01662 11.4997 7.14995 11.3664C7.28328 11.2442 7.43884 11.1803 7.61662 11.1747C7.7944 11.1692 7.94995 11.2331 8.08328 11.3664L9.33328 12.6164V8.49974C9.33328 8.31085 9.39717 8.15252 9.52495 8.02474C9.65273 7.89696 9.81106 7.83308 9.99995 7.83308C10.1888 7.83308 10.3472 7.89696 10.475 8.02474C10.6027 8.15252 10.6666 8.31085 10.6666 8.49974V12.6164L11.9166 11.3664C12.0388 11.2442 12.1916 11.1831 12.375 11.1831C12.5583 11.1831 12.7166 11.2442 12.85 11.3664C12.9833 11.4997 13.05 11.6581 13.05 11.8414C13.05 12.0247 12.9833 12.1831 12.85 12.3164L10.4666 14.6997C10.4 14.7664 10.3277 14.8136 10.25 14.8414C10.1722 14.8692 10.0888 14.8831 9.99995 14.8831Z" fill="#808897"/>
</svg>
