<svg width="24" height="24" viewBox="0 0 24 24" fill="none" xmlns="http://www.w3.org/2000/svg">
<path d="M5.61643 20.2042L4.05469 18.1388C9.69494 11.937 10.6822 7.70652 11.637 1.47248H13.4848C14.4397 7.70652 15.4296 11.937 21.0671 18.1388L19.5054 20.2042C15.2381 17.821 9.91608 17.821 5.61643 20.2042ZM12.5622 10.2163C11.637 12.349 10.8089 14.129 9.40898 16.0383C11.513 15.6559 13.6466 15.6559 15.7155 16.0383C14.3453 14.129 13.5171 12.349 12.5622 10.2163Z" fill="#0D0D12"/>
<path d="M5.61643 20.2042L4.05469 18.1388C9.69494 11.937 10.6822 7.70652 11.637 1.47248H13.4848C14.4397 7.70652 15.4296 11.937 21.0671 18.1388L19.5054 20.2042C15.2381 17.821 9.91608 17.821 5.61643 20.2042ZM12.5622 10.2163C11.637 12.349 10.8089 14.129 9.40898 16.0383C11.513 15.6559 13.6466 15.6559 15.7155 16.0383C14.3453 14.129 13.5171 12.349 12.5622 10.2163Z" fill="url(#paint0_linear_705_3235)" fill-opacity="0.2"/>
<path d="M13.4375 1.52815C13.9127 4.62483 14.4 7.23331 15.4688 9.83869C16.5393 12.4483 18.192 15.052 20.9951 18.1414L19.4893 20.1326C15.2264 17.7716 9.92633 17.7714 5.63184 20.1326L4.12598 18.1414C6.93063 15.0518 8.58406 12.4484 9.6543 9.83869C10.7227 7.23337 11.2084 4.62474 11.6836 1.52815H13.4375ZM12.5117 10.1942C11.5868 12.3262 10.7604 14.1017 9.36426 16.0057L9.28223 16.118L9.41895 16.0926C11.5163 15.7114 13.643 15.7115 15.7051 16.0926L15.8408 16.118L15.7607 16.0057C14.3941 14.1014 13.5671 12.3257 12.6123 10.1932L12.5615 10.0789L12.5117 10.1942Z" stroke="white" stroke-opacity="0.1" stroke-width="0.110745"/>
<defs>
<linearGradient id="paint0_linear_705_3235" x1="12.5609" y1="1.47248" x2="12.5609" y2="20.2042" gradientUnits="userSpaceOnUse">
<stop stop-color="white"/>
<stop offset="1" stop-color="white" stop-opacity="0"/>
</linearGradient>
</defs>
</svg>
