<svg width="19" height="18" viewBox="0 0 19 18" fill="none" xmlns="http://www.w3.org/2000/svg">
<path d="M3.79694 11.3789C3.79694 12.4251 2.95138 13.2707 1.90519 13.2707C0.858986 13.2707 0.0134277 12.4251 0.0134277 11.3789C0.0134277 10.3327 0.858986 9.48718 1.90519 9.48718H3.79694V11.3789ZM4.74282 11.3789C4.74282 10.3327 5.58838 9.48718 6.63458 9.48718C7.68078 9.48718 8.52634 10.3327 8.52634 11.3789V16.1083C8.52634 17.1545 7.68078 18.0001 6.63458 18.0001C5.58838 18.0001 4.74282 17.1545 4.74282 16.1083V11.3789Z" fill="#E01E5A"/>
<path d="M6.63524 3.78364C5.58904 3.78364 4.74348 2.93808 4.74348 1.89188C4.74348 0.84568 5.58904 0.00012207 6.63524 0.00012207C7.68144 0.00012207 8.527 0.84568 8.527 1.89188V3.78364H6.63524ZM6.63524 4.74385C7.68144 4.74385 8.527 5.58941 8.527 6.6356C8.527 7.6818 7.68144 8.52736 6.63524 8.52736H1.89151C0.845314 8.52736 -0.000244141 7.6818 -0.000244141 6.6356C-0.000244141 5.58941 0.845314 4.74385 1.89151 4.74385H6.63524Z" fill="#36C5F0"/>
<path d="M14.2162 6.6356C14.2162 5.58941 15.0618 4.74385 16.108 4.74385C17.1542 4.74385 17.9997 5.58941 17.9997 6.6356C17.9997 7.6818 17.1542 8.52736 16.108 8.52736H14.2162V6.6356ZM13.2703 6.6356C13.2703 7.6818 12.4248 8.52736 11.3786 8.52736C10.3324 8.52736 9.48682 7.6818 9.48682 6.6356V1.89188C9.48682 0.84568 10.3324 0.00012207 11.3786 0.00012207C12.4248 0.00012207 13.2703 0.84568 13.2703 1.89188V6.6356Z" fill="#2EB67D"/>
<path d="M11.3786 14.2166C12.4248 14.2166 13.2703 15.0621 13.2703 16.1083C13.2703 17.1545 12.4248 18.0001 11.3786 18.0001C10.3324 18.0001 9.48682 17.1545 9.48682 16.1083V14.2166H11.3786ZM11.3786 13.2707C10.3324 13.2707 9.48682 12.4251 9.48682 11.3789C9.48682 10.3327 10.3324 9.48718 11.3786 9.48718H16.1223C17.1685 9.48718 18.0141 10.3327 18.0141 11.3789C18.0141 12.4251 17.1685 13.2707 16.1223 13.2707H11.3786Z" fill="#ECB22E"/>
</svg>
