<svg width="18" height="18" viewBox="0 0 18 18" fill="none" xmlns="http://www.w3.org/2000/svg">
<path d="M7.93284 4.05152C7.88199 3.98652 7.82782 3.95068 7.76279 3.95068C7.71616 3.95402 7.67279 3.96902 7.6328 3.99402C7.15197 4.36985 6.49784 5.96399 5.95947 8.06735L6.43698 8.07067C7.37697 8.08153 8.34864 8.09233 9.30697 8.1065C9.05367 7.14485 8.81534 6.32068 8.59529 5.65237C8.27281 4.68068 8.05614 4.24318 7.93284 4.05152Z" fill="#1E61F0"/>
<path d="M9 0C4.03 0 0 4.03 0 9C0 13.97 4.03 18 9 18C13.97 18 18 13.97 18 9C18 4.03 13.97 0 9 0ZM15.6433 8.89166C15.6183 8.99252 15.5567 9.09084 15.47 9.16251C15.4592 9.16999 15.4483 9.17668 15.4375 9.18416L15.4267 9.19164L15.405 9.20582L15.3867 9.21667C15.3183 9.25251 15.2417 9.27084 15.1625 9.27084H10.8975C10.93 9.41169 10.97 9.57414 11.0091 9.74835C11.2442 10.7567 11.8625 13.4383 12.5233 13.4383H12.5375H12.545H12.5592C13.0725 13.4383 13.3366 12.6942 13.915 11.0633L13.9225 11.045C14.0167 10.785 14.1217 10.4883 14.2333 10.1742L14.2625 10.095C14.3058 9.99 14.425 9.93583 14.53 9.97914C14.6058 10.0083 14.66 10.0842 14.66 10.1675C14.66 10.1892 14.6567 10.2075 14.6525 10.225L14.6275 10.3042C14.5658 10.4992 14.505 10.7633 14.4284 11.0708C14.085 12.495 13.5642 14.6458 12.2341 14.6458H12.2234C11.3633 14.6383 10.85 13.265 10.6292 12.6758C10.2175 11.5766 9.90664 10.4092 9.60666 9.27501H5.68918L4.87583 11.8808L4.865 11.87C4.7425 12.0617 4.48583 12.1192 4.29416 11.9967C4.175 11.9208 4.1025 11.7908 4.1025 11.65V11.6358L4.15333 11.3392C4.265 10.6709 4.4025 9.97251 4.55416 9.27169H2.89167L2.88417 9.26415C2.54416 9.21336 2.30916 8.89582 2.36 8.55585C2.4 8.29164 2.6025 8.08251 2.8625 8.03498C2.9275 8.02749 2.9925 8.02417 3.0575 8.02749H3.13666C3.66083 8.03498 4.2175 8.04583 4.83167 8.05253C5.69582 4.53917 6.69668 2.75333 7.80998 2.75C9.00247 2.75 9.88836 5.46416 10.5967 8.12081L10.6 8.13167C12.0533 8.16081 13.6075 8.20417 15.1142 8.31251L15.1792 8.31999C15.2042 8.31999 15.2258 8.32331 15.2517 8.32748H15.2592L15.2666 8.33085H15.27C15.5275 8.38164 15.6975 8.63499 15.6433 8.89166Z" fill="#1E61F0"/>
</svg>
