<svg width="18" height="16" viewBox="0 0 18 16" fill="none" xmlns="http://www.w3.org/2000/svg">
<path d="M14.0979 8.47003C13.0994 8.47003 12.1417 8.8667 11.4356 9.57277C10.7296 10.2788 10.3329 11.2365 10.3329 12.235C10.3329 13.2336 10.7296 14.1912 11.4356 14.8973C12.1417 15.6033 13.0994 16 14.0979 16C15.0964 16 16.0541 15.6033 16.7601 14.8973C17.4662 14.1912 17.8629 13.2336 17.8629 12.235C17.8629 11.2365 17.4662 10.2788 16.7601 9.57277C16.0541 8.8667 15.0964 8.47003 14.0979 8.47003ZM4.31704 8.47076C3.8183 8.46381 3.32315 8.55605 2.86036 8.7421C2.39757 8.92816 1.97637 9.20433 1.62123 9.55456C1.26609 9.90479 0.984081 10.3221 0.791601 10.7823C0.59912 11.2424 0.5 11.7362 0.5 12.235C0.5 12.7338 0.59912 13.2276 0.791601 13.6878C0.984081 14.1479 1.26609 14.5652 1.62123 14.9155C1.97637 15.2657 2.39757 15.5419 2.86036 15.7279C3.32315 15.914 3.8183 16.0062 4.31704 15.9993C5.3063 15.9855 6.25038 15.5828 6.94508 14.8784C7.63977 14.174 8.02924 13.2244 8.02924 12.235C8.02924 11.2457 7.63977 10.2961 6.94508 9.59162C6.25038 8.88719 5.3063 8.48453 4.31704 8.47076ZM12.9717 3.76462C12.9717 4.76306 12.5751 5.7206 11.8691 6.42661C11.1631 7.13261 10.2055 7.52924 9.2071 7.52924C8.20866 7.52924 7.25112 7.13261 6.54511 6.42661C5.83911 5.7206 5.44248 4.76306 5.44248 3.76462C5.44248 2.76618 5.83911 1.80863 6.54511 1.10263C7.25112 0.396628 8.20866 0 9.2071 0C10.2055 0 11.1631 0.396628 11.8691 1.10263C12.5751 1.80863 12.9717 2.76618 12.9717 3.76462Z" fill="#FF584A"/>
</svg>
