<svg width="18" height="18" viewBox="0 0 18 18" fill="none" xmlns="http://www.w3.org/2000/svg">
<path d="M0 4.5C0 2.01472 2.01472 0 4.5 0H13.5C15.9853 0 18 2.01472 18 4.5V13.5C18 15.9853 15.9853 18 13.5 18H4.5C2.01472 18 0 15.9853 0 13.5V4.5Z" fill="#FFDD33"/>
<path fill-rule="evenodd" clip-rule="evenodd" d="M11.9669 3.43127H10.3328L11.6945 5.8237L8.69884 3.43127H7.06489L8.56271 6.35543L5.43087 3.43127H3.79688L5.43087 7.15339L3.79688 14.5969H5.43087L8.56271 6.62166L7.06489 14.5969H8.69884L11.6945 6.08993L10.3328 14.5969H11.9669L14.9625 5.29199L11.9669 3.43127Z" fill="#1C1C1E"/>
</svg>
